<svg id="Layer_1" data-name="Layer 1" xmlns="http://www.w3.org/2000/svg" xmlns:xlink="http://www.w3.org/1999/xlink" viewBox="0 0 1538.44 1052.09"><defs><style>.cls-1{fill:#fff;}.cls-2{fill:url(#linear-gradient);}.cls-3{fill:url(#linear-gradient-2);}.cls-4{fill:url(#linear-gradient-3);}.cls-5{fill:url(#linear-gradient-4);}.cls-6{fill:url(#linear-gradient-5);}.cls-7{fill:#2aff5c;}.cls-8{fill:url(#linear-gradient-6);}.cls-9{fill:url(#linear-gradient-7);}.cls-10{fill:url(#linear-gradient-8);}.cls-11{fill:url(#linear-gradient-9);}</style><linearGradient id="linear-gradient" x1="3974.84" y1="6793.05" x2="3976.21" y2="6794.59" gradientTransform="matrix(201.69, 0, 0, -240.27, -796385.19, 1635931.84)" gradientUnits="userSpaceOnUse"><stop offset="0" stop-color="#461b7d"/><stop offset="0.48" stop-color="#2c2aa1"/><stop offset="0.58" stop-color="#2152b9"/><stop offset="0.72" stop-color="#1383d7"/><stop offset="0.84" stop-color="#08a6ed"/><stop offset="0.94" stop-color="#02bcfa"/><stop offset="1" stop-color="#00c4ff"/></linearGradient><linearGradient id="linear-gradient-2" x1="3975.95" y1="6795.41" x2="3974.73" y2="6792.03" gradientTransform="matrix(209.22, 0, 0, -236.96, -826272.42, 1613474.51)" xlink:href="#linear-gradient"/><linearGradient id="linear-gradient-3" x1="3976.83" y1="6788.33" x2="3976.43" y2="6785.94" gradientTransform="matrix(165.36, 0, 0, -149.72, -652178.49, 1020031.88)" xlink:href="#linear-gradient"/><linearGradient id="linear-gradient-4" x1="3984.62" y1="6794.98" x2="3984.67" y2="6792.38" gradientTransform="matrix(69.82, 0, 0, -244.33, -273030.63, 1663646.6)" gradientUnits="userSpaceOnUse"><stop offset="0.19" stop-color="#48197c"/><stop offset="1" stop-color="#2578d3"/></linearGradient><linearGradient id="linear-gradient-5" x1="3979.07" y1="6775.72" x2="3981.44" y2="6775.61" gradientTransform="matrix(100.18, 0, 0, -81.4, -393528.19, 555040.32)" gradientUnits="userSpaceOnUse"><stop offset="0" stop-color="#412189"/><stop offset="0.1" stop-color="#412189"/><stop offset="0.24" stop-color="#3d238e"/><stop offset="0.39" stop-color="#32289b"/><stop offset="0.48" stop-color="#282da7"/><stop offset="0.57" stop-color="#2851bb"/><stop offset="0.74" stop-color="#289be3"/><stop offset="0.78" stop-color="#34a7e7"/><stop offset="0.92" stop-color="#5ecff7"/><stop offset="1" stop-color="#6edffd"/></linearGradient><linearGradient id="linear-gradient-6" x1="3978.01" y1="6784.69" x2="3978.01" y2="6782.35" gradientTransform="matrix(109, 0, 0, -124, -428652, 845057.71)" gradientUnits="userSpaceOnUse"><stop offset="0" stop-color="#00c4ff"/><stop offset="1" stop-color="#421d82"/></linearGradient><linearGradient id="linear-gradient-7" x1="3980.52" y1="6789.72" x2="3980.52" y2="6787.38" gradientTransform="matrix(119, 0, 0, -164, -468063, 1117178.71)" xlink:href="#linear-gradient-6"/><linearGradient id="linear-gradient-8" x1="3982.38" y1="6784.84" x2="3982.38" y2="6782.5" gradientTransform="matrix(115, 0, 0, -125, -452060, 851861.71)" xlink:href="#linear-gradient-6"/><linearGradient id="linear-gradient-9" x1="3984.31" y1="6784.37" x2="3984.31" y2="6782.03" gradientTransform="matrix(111, 0, 0, -122, -436061, 831449.71)" xlink:href="#linear-gradient-6"/></defs><g id="Group"><path class="cls-1" d="M5192.08,3782.54c17.62-83.86,67.57-182.68,148.46-293.75l29.14,14.74c-6,19-11.09,52.34-3,63.31.8,1.09,2.28,3.1,8,3.1h0c10.3,0,36-6.6,92.47-50.73,167-130.6,109.71-291,109.11-292.63l26.84-17.84c2.6,2.45,64,61,92.6,158.06l.29,1,.16,1c11.22,68.21-7.91,132-56.86,189.69-73.48,86.54-194.42,133.23-227.66,133.23-11.47,0-16.9-5.37-19.44-9.88-5.4-9.6-3.68-22.84,5.09-39.59-106.62,43.15-153.39,104.1-173.87,150.39Z" transform="translate(-4806.38 -3208.74)"/><path class="cls-1" d="M5200.88,3935.14c-18-43.51-20.93-94.86-8.8-152.6l.36-1.71.7-1.59c26.2-59.22,89.77-139.55,243.83-185.93l55.48-16.7-38.29,43.48a252.18,252.18,0,0,0-26.15,35.37c39-10.8,127.51-49.46,186.09-118.46,42.38-49.9,59-104.69,49.49-162.85l32.2-7.34c29.36,99.85,13.52,201.2-47.07,301.23a206.68,206.68,0,0,1-33.4,40.62l-.43.41-.46.37a225.18,225.18,0,0,1-125.9,50.09c-99.69,8-180,70.84-180.82,71.47L5285,3849l-3.92-28.76c-1.23-9,2.45-21.19,8.36-34.06-53.26,44.79-61.35,99-56.77,140.82Z" transform="translate(-4806.38 -3208.74)"/><path class="cls-1" d="M5365.62,4065c-4.91-.9-120.84-23.35-164.74-130l-.9-2.18-.25-2.33c-5.75-52.93,4-150.59,133.49-210.12l20.21,24.87c-7.26,9.83-14.21,20.15-20.19,29.83,36.08-20.05,90.41-43.65,152.74-48.66a192.28,192.28,0,0,0,107.57-42.73l22,24.71c-33.71,32.76-80.73,62.52-126.2,91.29-73.87,46.74-150.26,95.07-155.53,149-2.66,27.18,12.46,56,46.21,88l40.41,38.34Z" transform="translate(-4806.38 -3208.74)"/><path class="cls-1" d="M5256.11,4049.41c-4.27-1-105.2-26.34-152.93-118.92-34.15-66.26-31.84-148.74,6.87-245.15l.43-1.06.57-1c33.45-58.49,72.67-154.47,55.11-184.75-1.52-2.62-5.55-9.56-22.54-9.56-11.15,0-25.44,3-42.46,8.83l-50.43,17.36,31.8-42.92s1.22-1.65,3.59-4.41l2.2-2.54,3-1.49c20-9.9,50.09-21.71,79.75-21.71,25.8,0,47.2,9.3,61.9,26.89,25.5,30.55,30.94,83.9,16.59,163.13l-.42,2.33-1,2.12c-58.21,116.49-101.52,277.71,22.67,384.2Z" transform="translate(-4806.38 -3208.74)"/><path class="cls-1" d="M5217,3626.22c15.36-84.71,3.36-120.72-9.41-136-8.44-10.11-20.38-15-36.52-15-24.5,0-51.3,11.43-65.1,18.25l-19.81-25.69c12.2-14,46-46.57,96.33-46.57,29.27,0,58.72,11.23,87.56,33.38,11.9,9.15,22.54,13.79,31.61,13.79,7.33,0,14.47-3.08,21.81-9.41l23.74,22.84a886.35,886.35,0,0,0-99.15,154.82Z" transform="translate(-4806.38 -3208.74)"/><path id="Path" class="cls-2" d="M5441.74,3609.15s-43.68,49.4-35.14,64.57,308.29-89,273.22-302.25c-27.64-93.89-88.06-150.67-88.06-150.67s64.09,171.87-114.43,311.44c-178.17,139.32-123.42-33.71-123.42-33.71-87,119.49-130.11,213.53-145.64,287.41C5233.11,3729.79,5293.77,3653.7,5441.74,3609.15Z" transform="translate(-4806.38 -3208.74)"/><path id="Path-2" data-name="Path" class="cls-3" d="M5340.13,3735.53s-45.56,61.53-42.71,82.51c0,0,83.54-66.47,189.88-75A209.78,209.78,0,0,0,5604,3696.61a190.24,190.24,0,0,0,30.58-37.14c68.56-113.19,67.53-212.56,45.34-288,35,213.29-264.87,317.4-273.31,302.25s35.14-64.57,35.14-64.57c-148,44.55-208.63,120.64-233.47,176.79-12.61,60-7.05,106.67,7.9,142.89C5210.72,3878.94,5220.62,3790.45,5340.13,3735.53Z" transform="translate(-4806.38 -3208.74)"/><path id="Path-3" data-name="Path" class="cls-4" d="M5368.61,4048.74C5200.25,3889,5487.28,3810,5604,3696.58A209.71,209.71,0,0,1,5487.3,3743c-106.34,8.53-189.88,75-189.88,75-2.85-20.91,42.71-82.51,42.71-82.51-119.51,54.92-129.37,143.48-124,193.3C5257.15,4028.25,5368.61,4048.74,5368.61,4048.74Z" transform="translate(-4806.38 -3208.74)"/><path id="Path-4" data-name="Path" class="cls-5" d="M5233.3,3629.17c40-220.93-91.57-171.84-134.64-150.53-1.9,2.21-2.89,3.52-2.89,3.52,186.15-64.09,29.64,209.34,29.64,209.34-113.23,282,134.58,341.83,134.58,341.83C5128.06,3920.2,5171.91,3752,5233.3,3629.17Z" transform="translate(-4806.38 -3208.74)"/><path id="Path-5" data-name="Path" class="cls-6" d="M5233.3,3629.17a901.64,901.64,0,0,1,101-157.71c-20.91,18-44.69,19-74.31-3.79-85.75-65.85-147.54-4.89-161.33,10.94C5141.73,3457.33,5273.35,3408.24,5233.3,3629.17Z" transform="translate(-4806.38 -3208.74)"/><g id="Shape"><path class="cls-1" d="M4917.69,4062.93c-65.54,0-111.31-41.78-111.31-101.6,0-50.55,32.05-84.87,89.26-97.65h-78.05l1.75-21.07c5.14-63.42,60.07-104.43,139.94-104.43,81.68,0,136.57,44.52,136.57,110.79v209.5h-110v-16.84C4967.18,4055.44,4943.75,4062.93,4917.69,4062.93ZM4945.31,3939c-19.76,1.22-29.77,7.23-29.77,17.88,0,14.91,17,17.05,27.15,17.05,25,0,43.21-14.68,43.21-34.91v-2.59Zm10.8-109.18c-18.67,0-31.21,6.83-33.53,18.25l-2.58,11.65q5.68-.61,11.63-1l54.27-3.27v-1.75C4985.9,3847.79,4985.9,3829.81,4956.11,3829.81Z" transform="translate(-4806.38 -3208.74)"/><path id="path-7" class="cls-7" d="M4917.69,4046.39c37.11,0,67.12-17.59,83.18-46.47h1.57v42h76.87V3849c0-56.7-47.12-94.24-120-94.24-74.5,0-119.24,37.27-123.46,89.25l-.26,3.15h70.28l.53-2.36c3.68-18.11,21.06-31.5,49.75-31.5,30,0,46.32,15.49,46.32,40.43V3871l-69.75,4.2c-70,4.47-109.76,34.39-109.76,85.58v.53C4822.93,4011,4861.09,4046.39,4917.69,4046.39Zm-18.69-89v-.52c0-19.95,15.53-32.56,45.27-34.39l58.17-3.68V3939c0,29.4-25.26,51.45-59.75,51.45C4916.11,3990.47,4899,3978.13,4899,3957.39Z" transform="translate(-4806.38 -3208.74)"/><path class="cls-1" d="M4917.69,4062.93c-65.54,0-111.31-41.78-111.31-101.6,0-50.55,32.05-84.87,89.26-97.65h-78.05l1.75-21.07c5.14-63.42,60.07-104.43,139.94-104.43,81.68,0,136.57,44.52,136.57,110.79v209.5h-110v-16.84C4967.18,4055.44,4943.75,4062.93,4917.69,4062.93ZM4945.31,3939c-19.76,1.22-29.77,7.23-29.77,17.88,0,14.91,17,17.05,27.15,17.05,25,0,43.21-14.68,43.21-34.91v-2.59Zm10.8-109.18c-18.67,0-31.21,6.83-33.53,18.25l-2.58,11.65q5.68-.61,11.63-1l54.27-3.27v-1.75C4985.9,3847.79,4985.9,3829.81,4956.11,3829.81Z" transform="translate(-4806.38 -3208.74)"/><path id="path-7-2" data-name="path-7" class="cls-8" d="M4917.69,4046.39c37.11,0,67.12-17.59,83.18-46.47h1.57v42h76.87V3849c0-56.7-47.12-94.24-120-94.24-74.5,0-119.24,37.27-123.46,89.25l-.26,3.15h70.28l.53-2.36c3.68-18.11,21.06-31.5,49.75-31.5,30,0,46.32,15.49,46.32,40.43V3871l-69.75,4.2c-70,4.47-109.76,34.39-109.76,85.58v.53C4822.93,4011,4861.09,4046.39,4917.69,4046.39Zm-18.69-89v-.52c0-19.95,15.53-32.56,45.27-34.39l58.17-3.68V3939c0,29.4-25.26,51.45-59.75,51.45C4916.11,3990.47,4899,3978.13,4899,3957.39Z" transform="translate(-4806.38 -3208.74)"/></g><g id="Shape-2" data-name="Shape"><path class="cls-1" d="M5593.86,4065.28c-80.95,0-131.25-62.63-131.25-163.47s50.3-163.47,131.25-163.47c27.66,0,52.53,8.82,71.84,24.71v-116.6h109.91v413H5665.7v-18.21C5646.57,4056.85,5621.93,4065.28,5593.86,4065.28Zm25.78-230.13c-42.5,0-45.8,50.82-45.8,66.4,0,15.9,3.3,66.93,45.8,66.93,28.58,0,46.32-25.55,46.32-66.67C5666,3861.22,5647.78,3835.15,5619.64,3835.15Z" transform="translate(-4806.38 -3208.74)"/><path id="path-9" class="cls-7" d="M5593.86,4048.74c40.77,0,71.82-20.54,86.81-54h1.58V4043h76.81V3663h-76.81v146.67h-1.58c-15.26-34.23-46.83-54.77-86.81-54.77-71,0-114.7,54.77-114.7,146.66v.26C5479.16,3993.44,5522.83,4048.74,5593.86,4048.74Zm25.78-63.72c-38.41,0-62.35-31.86-62.35-83.21v-.26c0-51.61,24.2-82.94,62.35-82.94,37.09,0,62.87,32.12,62.87,82.94v.26C5682.51,3952.89,5657,3985,5619.64,3985Z" transform="translate(-4806.38 -3208.74)"/><path class="cls-1" d="M5593.86,4065.28c-80.95,0-131.25-62.63-131.25-163.47s50.3-163.47,131.25-163.47c27.66,0,52.53,8.82,71.84,24.71v-116.6h109.91v413H5665.7v-18.21C5646.57,4056.85,5621.93,4065.28,5593.86,4065.28Zm25.78-230.13c-42.5,0-45.8,50.82-45.8,66.4,0,15.9,3.3,66.93,45.8,66.93,28.58,0,46.32-25.55,46.32-66.67C5666,3861.22,5647.78,3835.15,5619.64,3835.15Z" transform="translate(-4806.38 -3208.74)"/><path id="path-9-2" data-name="path-9" class="cls-9" d="M5593.86,4048.74c40.77,0,71.82-20.54,86.81-54h1.58V4043h76.81V3663h-76.81v146.67h-1.58c-15.26-34.23-46.83-54.77-86.81-54.77-71,0-114.7,54.77-114.7,146.66v.26C5479.16,3993.44,5522.83,4048.74,5593.86,4048.74Zm25.78-63.72c-38.41,0-62.35-31.86-62.35-83.21v-.26c0-51.61,24.2-82.94,62.35-82.94,37.09,0,62.87,32.12,62.87,82.94v.26C5682.51,3952.89,5657,3985,5619.64,3985Z" transform="translate(-4806.38 -3208.74)"/></g><g id="Shape-3" data-name="Shape"><path class="cls-1" d="M5916.81,4065.28c-95.9,0-155.47-62.46-155.47-163,0-99.78,59.78-164.08,152.31-164.08,91.89,0,151.27,62,151.27,158v40.25H5872.15c3.87,18.55,15.27,38.31,46.25,38.31,26.14,0,38.12-14.47,40.81-22.12l4.19-12.65h104.28l-6.39,23.34C6051.21,4010.48,6007.39,4065.28,5916.81,4065.28Zm36.84-210.39c-5.59-14.2-16.8-26.19-38.68-26.19-18.27,0-31.89,9.34-39.07,26.19Z" transform="translate(-4806.38 -3208.74)"/><path id="path-11" class="cls-7" d="M5916.82,4048.74c80.67,0,119.69-47.69,128.39-89.31l.79-2.9h-70.66l-.52,1.58c-5.54,15.81-24.78,33.2-56.42,33.2-39.28,0-63.8-26.35-64.59-71.4h194.56V3896.2c0-85.36-51.93-141.47-134.72-141.47s-135.77,57.43-135.77,147.27v.26C5777.88,3992.62,5830.34,4048.74,5916.82,4048.74ZM5915,3812.16c31.9,0,54.84,20.28,59.58,59.27H5854.6C5859.61,3833.23,5883.33,3812.16,5915,3812.16Z" transform="translate(-4806.38 -3208.74)"/><path class="cls-1" d="M5916.81,4065.28c-95.9,0-155.47-62.46-155.47-163,0-99.78,59.78-164.08,152.31-164.08,91.89,0,151.27,62,151.27,158v40.25H5872.15c3.87,18.55,15.27,38.31,46.25,38.31,26.14,0,38.12-14.47,40.81-22.12l4.19-12.65h104.28l-6.39,23.34C6051.21,4010.48,6007.39,4065.28,5916.81,4065.28Zm36.84-210.39c-5.59-14.2-16.8-26.19-38.68-26.19-18.27,0-31.89,9.34-39.07,26.19Z" transform="translate(-4806.38 -3208.74)"/><path id="path-11-2" data-name="path-11" class="cls-10" d="M5916.82,4048.74c80.67,0,119.69-47.69,128.39-89.31l.79-2.9h-70.66l-.52,1.58c-5.54,15.81-24.78,33.2-56.42,33.2-39.28,0-63.8-26.35-64.59-71.4h194.56V3896.2c0-85.36-51.93-141.47-134.72-141.47s-135.77,57.43-135.77,147.27v.26C5777.88,3992.62,5830.34,4048.74,5916.82,4048.74ZM5915,3812.16c31.9,0,54.84,20.28,59.58,59.27H5854.6C5859.61,3833.23,5883.33,3812.16,5915,3812.16Z" transform="translate(-4806.38 -3208.74)"/></g><g id="Path-6" data-name="Path"><path class="cls-1" d="M6235.11,4058.22V3875.91c0-36.49-18.79-41.17-35.15-41.17-24.44,0-39.61,17.38-39.61,45.36v178.12H6050.64V3744h109.71v16.66c18.64-14.67,42.72-22.43,70.84-22.43,70.08,0,113.63,46.74,113.63,122v198Z" transform="translate(-4806.38 -3208.74)"/><path id="path-13" class="cls-7" d="M6067.19,4041.68h76.62V3880.11c0-36.73,21.78-61.91,56.15-61.91s51.69,21,51.69,57.71v165.77h76.62V3860.17c0-65.84-35.16-105.44-97.08-105.44-42.51,0-71.38,19.67-85.81,51.93h-1.57V3760.5h-76.62Z" transform="translate(-4806.38 -3208.74)"/><path class="cls-1" d="M6235.11,4058.22V3875.91c0-36.49-18.79-41.17-35.15-41.17-24.44,0-39.61,17.38-39.61,45.36v178.12H6050.64V3744h109.71v16.66c18.64-14.67,42.72-22.43,70.84-22.43,70.08,0,113.63,46.74,113.63,122v198Z" transform="translate(-4806.38 -3208.74)"/><path id="path-13-2" data-name="path-13" class="cls-11" d="M6067.19,4041.68h76.62V3880.11c0-36.73,21.78-61.91,56.15-61.91s51.69,21,51.69,57.71v165.77h76.62V3860.17c0-65.84-35.16-105.44-97.08-105.44-42.51,0-71.38,19.67-85.81,51.93h-1.57V3760.5h-76.62Z" transform="translate(-4806.38 -3208.74)"/></g></g><path class="cls-1" d="M5670,4234.47c-18.76,0-35-6.61-48.29-19.66a65.53,65.53,0,0,1-20.19-48.29c0-19,6.71-35.3,19.93-48.41s29.44-19.62,48.41-19.62c20.56,0,37.92,7.86,51.59,23.36a50.36,50.36,0,0,1,8.86,13.48l6.89,16.12h-35.92l-3.43-5.14c-6.77-10.1-15.73-14.8-28.2-14.8-9.21,0-17,3.46-23.9,10.58s-10.17,15.12-10.17,24.57c0,9.21,3.39,17.12,10.37,24.2s14.8,10.52,23.91,10.52a31.6,31.6,0,0,0,15.81-4.14,43.49,43.49,0,0,0,13-11.83l3.47-4.62h37.45l-9.29,17.1C5717.27,4221.82,5696.43,4234.47,5670,4234.47Z" transform="translate(-4806.38 -3208.74)"/><path class="cls-1" d="M5774.35,4234.47c-14.47,0-27.12-5.3-37.6-15.76s-15.89-23.1-15.89-37.58a53.22,53.22,0,0,1,15.46-38.22,51.06,51.06,0,0,1,38-16.27c14.57,0,27.3,5.36,37.83,15.94s15.87,23.34,15.87,38a54.15,54.15,0,0,1-53.7,53.91Zm.14-75.39a18.24,18.24,0,0,0-14.23,6.34,21.68,21.68,0,0,0-6,15.57,20.33,20.33,0,0,0,6,14.88,18.54,18.54,0,0,0,14.18,6.16,18.28,18.28,0,0,0,14.32-6.22c4-4.32,5.82-9.32,5.82-15.68a20.33,20.33,0,0,0-6-14.89A18.5,18.5,0,0,0,5774.49,4159.08Z" transform="translate(-4806.38 -3208.74)"/><path class="cls-1" d="M5928.76,4232.53v-58.31c0-5.34-.95-9.38-2.82-12-1.14-1.59-2.88-3.12-7.5-3.12s-6.27,1.5-7.41,3.11c-1.94,2.7-2.9,6.72-2.9,12v58.31h-33.41v-58.31c0-5.31-1-9.33-2.85-12-1.19-1.68-2.88-3.18-7.46-3.18s-6.35,1.5-7.5,3.12c-1.93,2.68-2.88,6.71-2.88,12v58.31h-33.42v-103.8H5851a41.63,41.63,0,0,1,13.39-2.09c10.76,0,20,3.17,27.24,9.28a41.18,41.18,0,0,1,26.79-9.28c13.3,0,24.55,4.83,32.54,14,7.46,8.45,11.26,19.36,11.26,32.4v59.53Z" transform="translate(-4806.38 -3208.74)"/><path class="cls-1" d="M5958.18,4260.83v-132.1h33.42v1.85a50.5,50.5,0,0,1,20.07-3.94c15,0,27.93,5.14,38.45,15.26,10.82,10.31,16.32,23.28,16.32,38.51s-5.41,28.29-16.07,38.63-23.54,15.43-38.7,15.43a51.5,51.5,0,0,1-20.07-3.84v30.2Zm53.49-101.75a19,19,0,0,0-14.59,6.28,21,21,0,0,0-6.06,15.34,20.52,20.52,0,0,0,6,15.14,19.17,19.17,0,0,0,14.65,6.19c6.38,0,11.24-1.88,15.29-5.91s6-8.92,6-15.27c0-6.57-1.9-11.58-6-15.76S6018.09,4159.08,6011.67,4159.08Z" transform="translate(-4806.38 -3208.74)"/><path class="cls-1" d="M6109.91,4234.47c-15.17,0-28.2-5.2-38.72-15.45s-16.06-23.31-16.06-38.61,5.47-28.18,16.27-38.52c10.56-10.12,23.52-15.25,38.51-15.25a52.81,52.81,0,0,1,20,3.68v-1.59h33.48v103.8h-33.48v-1.8A52.08,52.08,0,0,1,6109.91,4234.47Zm0-75.39c-6.43,0-11.31,1.92-15.35,6s-6,9.18-6,15.73c0,6.34,1.91,11.2,6,15.26s9,5.92,15.37,5.92a19.2,19.2,0,0,0,14.64-6.19,20.56,20.56,0,0,0,6-15.14,21.05,21.05,0,0,0-6.06-15.35A19,19,0,0,0,6109.91,4159.08Z" transform="translate(-4806.38 -3208.74)"/><path class="cls-1" d="M6219.25,4232.53V4176.6a28.3,28.3,0,0,0-1.19-8.48,11.83,11.83,0,0,0-2.89-5.31,12.86,12.86,0,0,0-9.46-3.73,13.11,13.11,0,0,0-9.56,3.76,11.52,11.52,0,0,0-2.79,5,27.11,27.11,0,0,0-1.12,8v56.72h-33.41v-103.8h32.62a46.53,46.53,0,0,1,14.26-2.09c14.67,0,26.46,5,35,14.75,7.91,9.07,11.91,20.91,11.91,35.21v55.93Z" transform="translate(-4806.38 -3208.74)"/><polygon class="cls-1" points="1445.73 1052.09 1464.98 1009.29 1429.15 919.99 1465.03 919.99 1483.08 965.43 1502.4 919.99 1538.44 919.99 1481.96 1052.09 1445.73 1052.09"/><path d="M5720.09,4192.37q-16.58,30.53-50.09,30.53a55.24,55.24,0,0,1-40.18-16.35,54.12,54.12,0,0,1-16.73-40q0-23.84,16.51-40.18t40.26-16.28q25.76,0,42.91,19.45a38.88,38.88,0,0,1,6.89,10.36h-12.2q-13.35-19.94-37.81-19.94-18.6,0-32.23,14.11-13.41,13.91-13.42,32.62,0,18.43,13.71,32.33t32.15,14a43.24,43.24,0,0,0,21.46-5.62,55,55,0,0,0,16.58-15Z" transform="translate(-4806.38 -3208.74)"/><path d="M5804.06,4210.37a40.39,40.39,0,0,1-29.71,12.53q-17,0-29.43-12.39t-12.48-29.38a41.82,41.82,0,0,1,12.2-30.17,39.73,39.73,0,0,1,29.71-12.74q17.14,0,29.63,12.53a41.91,41.91,0,0,1,.08,59.62Zm-7.11-53.14a30,30,0,0,0-22.46-9.72,29.69,29.69,0,0,0-22.75,10.08,33.3,33.3,0,0,0-9,23.4,32,32,0,0,0,9.26,22.9,31.07,31.07,0,0,0,45.35-.22,33.63,33.63,0,0,0,8.9-23.54A32,32,0,0,0,5797,4157.23Z" transform="translate(-4806.38 -3208.74)"/><path d="M5940.33,4221v-46.73q0-11.73-4.95-18.72-5.74-8-16.94-8t-16.86,8q-5,7-5,18.72V4221H5886.3v-46.73q0-11.73-5-18.72-5.67-8-16.86-8t-16.94,8q-5,7-5,18.72V4221h-10.27v-80.64h10.27v9.29q7.17-11.39,22-11.38,18.38,0,27,15.48,9.69-15.48,27-15.48,15.07,0,23.83,10,8.4,9.5,8.4,24.77V4221Z" transform="translate(-4806.38 -3208.74)"/><path d="M6042.31,4210.73q-12.5,12.17-30.64,12.17-20.31,0-31.36-16.13H5980v42.48h-10.27V4140.31H5980v14.11h.29q11.4-16.2,31.36-16.2,17.94,0,30.42,12,12.78,12.18,12.78,30.17Q6054.87,4198.56,6042.31,4210.73Zm-7-53.72q-9.32-9.49-23.6-9.5a30.53,30.53,0,0,0-23,9.86,32.64,32.64,0,0,0-9.25,23.33,32.16,32.16,0,0,0,9.25,23.19,30.73,30.73,0,0,0,23,9.72q14.13,0,23.46-9.29t9.4-23.47Q6044.53,4166.51,6035.27,4157Z" transform="translate(-4806.38 -3208.74)"/><path d="M6141.48,4221v-14.18h-.29q-10.6,16.13-31.28,16.13-18.16,0-30.65-12.17t-12.56-30.32q0-18,12.71-30.17,12.56-12,30.5-12,21,0,31.28,16.2h.29v-14.11h10.34V4221Zm-8.61-63.58a30.53,30.53,0,0,0-23-9.86q-14.3,0-23.61,9.5t-9.33,23.84q0,14.11,9.4,23.47t23.54,9.29a30.73,30.73,0,0,0,23-9.72,32.17,32.17,0,0,0,9.26-23.19A32.64,32.64,0,0,0,6132.87,4157.37Z" transform="translate(-4806.38 -3208.74)"/><path d="M6230.83,4221V4176.6a39.64,39.64,0,0,0-1.73-12,22.84,22.84,0,0,0-6-10.22,25.55,25.55,0,0,0-34.95,0,22.74,22.74,0,0,0-5.88,9.94,38.51,38.51,0,0,0-1.65,11.45V4221H6170.4v-80.64h10.27v10.29h.28q8-12.37,24.76-12.38t26.34,10.8q9,10.36,9,27.58V4221Z" transform="translate(-4806.38 -3208.74)"/><path d="M6280.7,4249.25H6270l13.92-31-31.28-78h10.9l25.55,64.3,27.34-64.3h10.84Z" transform="translate(-4806.38 -3208.74)"/></svg>